<svg width="142" height="142" viewBox="0 0 142 142" fill="none" xmlns="http://www.w3.org/2000/svg">
<path d="M88.3421 44.4623C87.7772 44.2119 87.1359 44.1963 86.5596 44.4189C85.9832 44.6416 85.519 45.0843 85.2693 45.6495C81.933 53.2688 74.4053 58.1928 66.0876 58.1967C64.802 58.1967 63.7598 59.2389 63.7598 60.5246C63.7598 61.8102 64.802 62.8525 66.0876 62.8525C76.2878 62.8828 85.5331 56.8564 89.6224 47.5118C89.86 46.9379 89.8584 46.2929 89.618 45.7201C89.3775 45.1474 88.9181 44.6946 88.3421 44.4623Z" fill="white" fill-opacity="0.1"/>
<path d="M126.147 40.598C121.569 38.2797 115.979 40.1015 113.646 44.6718C108.506 53.5623 100.28 60.2557 90.5306 63.481C90.2589 63.55 89.9707 63.4992 89.7391 63.3413C89.6511 63.2542 89.5801 63.1516 89.5296 63.0387C103.045 50.7752 104.837 30.1728 93.6419 15.7601C82.4472 1.34737 62.042 -2.0139 46.8158 8.04662C31.5897 18.1071 26.6789 38.1958 35.5463 54.1462C32.5569 54.2219 29.7857 55.7287 28.0971 58.1967C23.4726 64.2358 16.7994 68.3755 9.33452 69.8361C4.92786 70.47 1.54079 74.0597 1.1637 78.4957C0.779613 83.4774 4.39572 87.8742 9.3578 88.459C12.4539 88.8315 21.9748 86.62 30.3086 81.3357C28.429 85.7434 25.8681 89.8283 22.7198 93.4406C14.7361 102.305 10.2586 113.776 10.126 125.705C10.126 132.133 15.3371 137.344 21.7653 137.344C28.2343 137.268 33.4307 131.988 33.4047 125.519C33.4477 120.976 34.7534 116.535 37.1758 112.692C39.0016 113.832 40.9863 114.695 43.0653 115.253C41.4839 120.139 40.6137 125.227 40.4814 130.361C40.4814 136.789 45.6925 142 52.1207 142C58.549 142 63.7601 136.789 63.7601 130.361C63.8317 124.128 66.174 118.136 70.3479 113.507C77.8402 104.859 83.1982 94.5733 85.9912 83.4774C104.701 80.8941 121.094 69.6342 130.221 53.0987C132.539 48.5211 130.717 42.9307 126.147 40.598V40.598ZM110.038 56.8931C111.933 59.3638 114.149 61.5714 116.626 63.4577C115.392 64.6915 114.019 65.9252 112.529 67.159C109.925 65.3315 107.762 62.9456 106.197 60.1754C107.54 59.157 108.823 58.061 110.038 56.8931ZM66.0879 67.5082C61.2192 67.5068 56.4245 66.3161 52.1207 64.0397C48.377 55.0488 46.7828 45.3084 47.465 35.5931C49.0945 32.4039 62.1073 9.45114 92.6257 22.6269C97.8013 32.0078 97.6311 43.4261 92.178 52.6485C86.7249 61.8709 76.8019 67.5226 66.0879 67.5082V67.5082ZM66.0879 6.9836C74.0965 6.97736 81.7778 10.1605 87.4345 15.8295C56.1945 6.70425 43.0653 33.6377 43.0653 33.9403C42.3437 35.5 41.8781 47.1393 45.5329 59.3606C36.4646 50.89 33.4866 37.7417 38.0198 26.1903C42.5531 14.6389 53.6789 7.02564 66.0879 6.9836ZM21.2066 70.418C22.3435 73.4203 23.1248 76.5454 23.5345 79.7295C22.3133 80.3282 21.0624 80.8643 19.7866 81.3357C19.3903 78.2473 18.6083 75.2207 17.4588 72.3269C18.7441 71.7641 19.9956 71.1267 21.2066 70.418V70.418ZM11.1735 83.8033C9.75981 84.0233 8.32343 83.5811 7.27824 82.604C6.23304 81.627 5.69511 80.2237 5.81944 78.7983C6.12587 76.5504 7.89971 74.7861 10.1493 74.4918C11.127 74.3056 12.0814 74.0961 12.9893 73.84C14.2222 76.7059 15.0073 79.7444 15.3171 82.8488C13.967 83.198 12.5935 83.5006 11.1735 83.8033V83.8033ZM22.6266 132.689C20.6304 132.937 18.6241 132.312 17.1216 130.974C15.6191 129.637 14.7664 127.716 14.7817 125.705C14.7817 125.449 14.7817 125.216 14.7817 124.96C19.2872 123.287 24.2434 123.287 28.7489 124.96V125.565C28.7151 129.114 26.1298 132.122 22.6266 132.689ZM52.8889 137.344C50.8927 137.592 48.8864 136.968 47.3839 135.63C45.8814 134.293 45.0287 132.372 45.044 130.361C45.044 130.105 45.044 129.849 45.044 129.569C49.5465 127.88 54.5087 127.88 59.0112 129.569V130.361C58.9842 133.851 56.4315 136.808 52.982 137.344H52.8889ZM83.803 79.1475C82.8366 79.2543 82.0383 79.9505 81.8011 80.8934C79.2684 91.841 74.1159 102.01 66.7863 110.527C63.149 114.59 60.6584 119.547 59.5699 124.89C54.9985 123.428 50.0948 123.363 45.4863 124.704C45.9329 121.771 46.6818 118.893 47.7211 116.114C49.2119 116.296 50.7121 116.389 52.2139 116.393C53.4995 116.393 54.5417 115.351 54.5417 114.066C54.5417 112.78 53.4995 111.738 52.2139 111.738C44.4853 111.738 40.365 109.549 38.2466 107.524C37.2232 106.601 36.4266 105.454 35.9188 104.172C35.7857 103.522 35.3817 102.96 34.8083 102.627C34.2348 102.293 33.5464 102.22 32.9158 102.426C31.6788 102.746 30.9308 104.003 31.2398 105.243C31.7166 106.814 32.5087 108.271 33.5676 109.526C31.4624 112.723 29.9924 116.295 29.2378 120.048C24.6475 118.627 19.7396 118.595 15.1309 119.955C16.3503 111.215 20.1334 103.034 26.0021 96.4436C31.2727 90.3058 35.1061 83.0685 37.2224 75.26C37.494 74.2603 37.0723 73.2015 36.1878 72.6622C35.3034 72.1229 34.169 72.2329 33.4047 72.9321C31.6598 74.5237 29.783 75.9644 27.7945 77.2387C27.2401 74.0395 26.3184 70.915 25.0476 67.9272C27.6369 65.975 29.9337 63.6625 31.8683 61.06C33.0202 59.3199 35.1892 58.5588 37.1758 59.1977C37.6732 59.3716 38.2148 59.3716 38.7122 59.1977C42.9232 64.4992 48.5846 68.4622 55.0073 70.6042C50.7295 75.3362 47.6552 81.0296 46.045 87.202C44.622 86.5591 43.2911 85.7293 42.0876 84.7344C41.1797 83.8318 39.7133 83.8318 38.8053 84.7344C38.3646 85.1715 38.1168 85.7665 38.1168 86.3872C38.1168 87.0079 38.3646 87.6029 38.8053 88.04C40.6923 89.6809 42.8402 90.9948 45.1604 91.9275C44.833 94.8126 44.833 97.7254 45.1604 100.61C45.2915 101.795 46.2963 102.69 47.4883 102.682C48.1527 102.686 48.7872 102.406 49.2319 101.913C49.6767 101.419 49.8892 100.759 49.8161 100.098C49.6078 97.9229 49.6078 95.7325 49.8161 93.557C55.1184 95.0422 60.6053 95.7633 66.1112 95.6987C67.3969 95.6987 68.4391 94.6565 68.4391 93.3708C68.4391 92.0852 67.3969 91.0429 66.1112 91.0429C60.8186 91.1222 55.5445 90.4001 50.468 88.9013C52.0549 82.4197 55.4446 76.5199 60.245 71.8846C69.1924 73.4456 78.3944 71.4128 85.8516 66.2279C87.25 68.0975 89.6809 68.8735 91.904 68.16C95.6003 67 99.1238 65.3479 102.379 63.2482C104.01 65.9268 106.107 68.292 108.572 70.2318C101.205 75.1644 92.7233 78.1809 83.8961 79.0079L83.803 79.1475ZM126.007 51.2131C124.302 54.3587 122.248 57.3026 119.885 59.9892C117.363 58.1445 115.147 55.9133 113.32 53.378C115.032 51.3388 116.544 49.1406 117.836 46.8134C118.99 44.5219 121.78 43.5954 124.075 44.7416C126.336 45.9115 127.238 48.6799 126.1 50.957L126.007 51.2131Z" fill="white" fill-opacity="0.1"/>
<path d="M89.3669 39.5738C90.6526 39.5738 91.6948 38.5315 91.6948 37.2459C91.6948 35.9603 90.6526 34.918 89.3669 34.918C88.0813 34.918 87.0391 35.9603 87.0391 37.2459C87.0391 38.5315 88.0813 39.5738 89.3669 39.5738Z" fill="white" fill-opacity="0.1"/>
<path d="M138.508 132.689H136.18V130.361C136.18 129.075 135.137 128.033 133.852 128.033C132.566 128.033 131.524 129.075 131.524 130.361V132.689H129.196C127.91 132.689 126.868 133.731 126.868 135.016C126.868 136.302 127.91 137.344 129.196 137.344H131.524V139.672C131.524 140.958 132.566 142 133.852 142C135.137 142 136.18 140.958 136.18 139.672V137.344H138.508C139.793 137.344 140.835 136.302 140.835 135.016C140.835 133.731 139.793 132.689 138.508 132.689Z" fill="white" fill-opacity="0.1"/>
<path d="M103.59 100.098H101.262V97.7705C101.262 96.4848 100.219 95.4426 98.9338 95.4426C97.6482 95.4426 96.6059 96.4848 96.6059 97.7705V100.098H94.2781C92.9924 100.098 91.9502 101.141 91.9502 102.426C91.9502 103.712 92.9924 104.754 94.2781 104.754H96.6059V107.082C96.6059 108.368 97.6482 109.41 98.9338 109.41C100.219 109.41 101.262 108.368 101.262 107.082V104.754H103.59C104.875 104.754 105.917 103.712 105.917 102.426C105.917 101.141 104.875 100.098 103.59 100.098Z" fill="white" fill-opacity="0.1"/>
<path d="M124.541 16.2951C125.827 16.2951 126.869 15.2528 126.869 13.9672V11.6393H129.197C130.483 11.6393 131.525 10.5971 131.525 9.31146C131.525 8.02581 130.483 6.98359 129.197 6.98359H126.869V4.65572C126.869 3.37007 125.827 2.32785 124.541 2.32785C123.256 2.32785 122.213 3.37007 122.213 4.65572V6.98359H119.885C118.6 6.98359 117.558 8.02581 117.558 9.31146C117.558 10.5971 118.6 11.6393 119.885 11.6393H122.213V13.9672C122.213 15.2528 123.256 16.2951 124.541 16.2951Z" fill="white" fill-opacity="0.1"/>
</svg>
