<svg width="238" height="46" viewBox="0 0 238 46" fill="none" xmlns="http://www.w3.org/2000/svg">
<path d="M67.368 33.144C66.12 33.144 64.92 32.944 63.768 32.544C62.632 32.144 61.752 31.616 61.128 30.96L61.824 29.592C62.432 30.2 63.24 30.696 64.248 31.08C65.256 31.448 66.296 31.632 67.368 31.632C68.872 31.632 70 31.36 70.752 30.816C71.504 30.256 71.88 29.536 71.88 28.656C71.88 27.984 71.672 27.448 71.256 27.048C70.856 26.648 70.36 26.344 69.768 26.136C69.176 25.912 68.352 25.672 67.296 25.416C66.032 25.096 65.024 24.792 64.272 24.504C63.52 24.2 62.872 23.744 62.328 23.136C61.8 22.528 61.536 21.704 61.536 20.664C61.536 19.816 61.76 19.048 62.208 18.36C62.656 17.656 63.344 17.096 64.272 16.68C65.2 16.264 66.352 16.056 67.728 16.056C68.688 16.056 69.624 16.192 70.536 16.464C71.464 16.72 72.264 17.08 72.936 17.544L72.336 18.96C71.632 18.496 70.88 18.152 70.08 17.928C69.28 17.688 68.496 17.568 67.728 17.568C66.256 17.568 65.144 17.856 64.392 18.432C63.656 18.992 63.288 19.72 63.288 20.616C63.288 21.288 63.488 21.832 63.888 22.248C64.304 22.648 64.816 22.96 65.424 23.184C66.048 23.392 66.88 23.624 67.92 23.88C69.152 24.184 70.144 24.488 70.896 24.792C71.664 25.08 72.312 25.528 72.84 26.136C73.368 26.728 73.632 27.536 73.632 28.56C73.632 29.408 73.4 30.184 72.936 30.888C72.488 31.576 71.792 32.128 70.848 32.544C69.904 32.944 68.744 33.144 67.368 33.144ZM81.5576 20.28C83.2056 20.28 84.4696 20.696 85.3496 21.528C86.2296 22.344 86.6696 23.56 86.6696 25.176V33H85.0376V31.032C84.6536 31.688 84.0856 32.2 83.3336 32.568C82.5976 32.936 81.7176 33.12 80.6936 33.12C79.2856 33.12 78.1656 32.784 77.3336 32.112C76.5016 31.44 76.0856 30.552 76.0856 29.448C76.0856 28.376 76.4696 27.512 77.2376 26.856C78.0216 26.2 79.2616 25.872 80.9576 25.872H84.9656V25.104C84.9656 24.016 84.6616 23.192 84.0536 22.632C83.4456 22.056 82.5576 21.768 81.3896 21.768C80.5896 21.768 79.8216 21.904 79.0856 22.176C78.3496 22.432 77.7176 22.792 77.1896 23.256L76.4216 21.984C77.0616 21.44 77.8296 21.024 78.7256 20.736C79.6216 20.432 80.5656 20.28 81.5576 20.28ZM80.9576 31.776C81.9176 31.776 82.7416 31.56 83.4296 31.128C84.1176 30.68 84.6296 30.04 84.9656 29.208V27.144H81.0056C78.8456 27.144 77.7656 27.896 77.7656 29.4C77.7656 30.136 78.0456 30.72 78.6056 31.152C79.1656 31.568 79.9496 31.776 80.9576 31.776ZM95.4739 16.512C94.7379 16.512 94.1779 16.712 93.7939 17.112C93.4259 17.512 93.2419 18.104 93.2419 18.888V20.376H97.1299V21.816H93.2899V33H91.5859V21.816H89.3299V20.376H91.5859V18.816C91.5859 17.664 91.9139 16.752 92.5699 16.08C93.2419 15.408 94.1859 15.072 95.4019 15.072C95.8819 15.072 96.3459 15.144 96.7939 15.288C97.2419 15.416 97.6179 15.608 97.9219 15.864L97.3459 17.136C96.8499 16.72 96.2259 16.512 95.4739 16.512ZM110.212 27.216H99.6518C99.7478 28.528 100.252 29.592 101.164 30.408C102.076 31.208 103.228 31.608 104.62 31.608C105.404 31.608 106.124 31.472 106.78 31.2C107.436 30.912 108.004 30.496 108.484 29.952L109.444 31.056C108.884 31.728 108.18 32.24 107.332 32.592C106.5 32.944 105.58 33.12 104.572 33.12C103.276 33.12 102.124 32.848 101.116 32.304C100.124 31.744 99.3478 30.976 98.7878 30C98.2278 29.024 97.9478 27.92 97.9478 26.688C97.9478 25.456 98.2118 24.352 98.7398 23.376C99.2838 22.4 100.02 21.64 100.948 21.096C101.892 20.552 102.948 20.28 104.116 20.28C105.284 20.28 106.332 20.552 107.26 21.096C108.188 21.64 108.916 22.4 109.444 23.376C109.972 24.336 110.236 25.44 110.236 26.688L110.212 27.216ZM104.116 21.744C102.9 21.744 101.876 22.136 101.044 22.92C100.228 23.688 99.7638 24.696 99.6518 25.944H108.604C108.492 24.696 108.02 23.688 107.188 22.92C106.372 22.136 105.348 21.744 104.116 21.744ZM129.448 20.28C131.032 20.28 132.272 20.736 133.168 21.648C134.08 22.56 134.536 23.904 134.536 25.68V33H132.832V25.848C132.832 24.536 132.512 23.536 131.872 22.848C131.248 22.16 130.36 21.816 129.208 21.816C127.896 21.816 126.864 22.224 126.112 23.04C125.36 23.84 124.984 24.952 124.984 26.376V33H123.28V25.848C123.28 24.536 122.96 23.536 122.32 22.848C121.696 22.16 120.8 21.816 119.632 21.816C118.336 21.816 117.304 22.224 116.536 23.04C115.784 23.84 115.408 24.952 115.408 26.376V33H113.704V20.376H115.336V22.68C115.784 21.912 116.408 21.32 117.208 20.904C118.008 20.488 118.928 20.28 119.968 20.28C121.024 20.28 121.936 20.504 122.704 20.952C123.488 21.4 124.072 22.064 124.456 22.944C124.92 22.112 125.584 21.464 126.448 21C127.328 20.52 128.328 20.28 129.448 20.28ZM144.364 33.12C143.148 33.12 142.052 32.848 141.076 32.304C140.1 31.744 139.332 30.976 138.772 30C138.212 29.024 137.932 27.92 137.932 26.688C137.932 25.456 138.212 24.352 138.772 23.376C139.332 22.4 140.1 21.64 141.076 21.096C142.052 20.552 143.148 20.28 144.364 20.28C145.58 20.28 146.676 20.552 147.652 21.096C148.628 21.64 149.388 22.4 149.932 23.376C150.492 24.352 150.772 25.456 150.772 26.688C150.772 27.92 150.492 29.024 149.932 30C149.388 30.976 148.628 31.744 147.652 32.304C146.676 32.848 145.58 33.12 144.364 33.12ZM144.364 31.608C145.26 31.608 146.06 31.408 146.764 31.008C147.484 30.592 148.044 30.008 148.444 29.256C148.844 28.504 149.044 27.648 149.044 26.688C149.044 25.728 148.844 24.872 148.444 24.12C148.044 23.368 147.484 22.792 146.764 22.392C146.06 21.976 145.26 21.768 144.364 21.768C143.468 21.768 142.66 21.976 141.94 22.392C141.236 22.792 140.676 23.368 140.26 24.12C139.86 24.872 139.66 25.728 139.66 26.688C139.66 27.648 139.86 28.504 140.26 29.256C140.676 30.008 141.236 30.592 141.94 31.008C142.66 31.408 143.468 31.608 144.364 31.608ZM159.411 33.12C158.195 33.12 157.099 32.848 156.123 32.304C155.147 31.744 154.379 30.976 153.819 30C153.259 29.024 152.979 27.92 152.979 26.688C152.979 25.456 153.259 24.352 153.819 23.376C154.379 22.4 155.147 21.64 156.123 21.096C157.099 20.552 158.195 20.28 159.411 20.28C160.627 20.28 161.723 20.552 162.699 21.096C163.675 21.64 164.435 22.4 164.979 23.376C165.539 24.352 165.819 25.456 165.819 26.688C165.819 27.92 165.539 29.024 164.979 30C164.435 30.976 163.675 31.744 162.699 32.304C161.723 32.848 160.627 33.12 159.411 33.12ZM159.411 31.608C160.307 31.608 161.107 31.408 161.811 31.008C162.531 30.592 163.091 30.008 163.491 29.256C163.891 28.504 164.091 27.648 164.091 26.688C164.091 25.728 163.891 24.872 163.491 24.12C163.091 23.368 162.531 22.792 161.811 22.392C161.107 21.976 160.307 21.768 159.411 21.768C158.515 21.768 157.707 21.976 156.987 22.392C156.283 22.792 155.723 23.368 155.307 24.12C154.907 24.872 154.707 25.728 154.707 26.688C154.707 27.648 154.907 28.504 155.307 29.256C155.723 30.008 156.283 30.592 156.987 31.008C157.707 31.408 158.515 31.608 159.411 31.608ZM175.73 20.28C177.314 20.28 178.57 20.744 179.498 21.672C180.442 22.584 180.914 23.92 180.914 25.68V33H179.21V25.848C179.21 24.536 178.882 23.536 178.226 22.848C177.57 22.16 176.634 21.816 175.418 21.816C174.058 21.816 172.978 22.224 172.178 23.04C171.394 23.84 171.002 24.952 171.002 26.376V33H169.298V20.376H170.93V22.704C171.394 21.936 172.034 21.344 172.85 20.928C173.682 20.496 174.642 20.28 175.73 20.28Z" fill="white"/>
<path d="M189.5 24.096H186.056V23.2H193.98V24.096H190.536V33H189.5V24.096ZM196.186 27.078C196.419 26.5833 196.764 26.21 197.222 25.958C197.688 25.706 198.262 25.58 198.944 25.58V26.546L198.706 26.532C197.931 26.532 197.324 26.77 196.886 27.246C196.447 27.722 196.228 28.3893 196.228 29.248V33H195.234V25.636H196.186V27.078ZM203.306 25.58C204.267 25.58 205.004 25.8227 205.518 26.308C206.031 26.784 206.288 27.4933 206.288 28.436V33H205.336V31.852C205.112 32.2347 204.78 32.5333 204.342 32.748C203.912 32.9627 203.399 33.07 202.802 33.07C201.98 33.07 201.327 32.874 200.842 32.482C200.356 32.09 200.114 31.572 200.114 30.928C200.114 30.3027 200.338 29.7987 200.786 29.416C201.243 29.0333 201.966 28.842 202.956 28.842H205.294V28.394C205.294 27.7593 205.116 27.2787 204.762 26.952C204.407 26.616 203.889 26.448 203.208 26.448C202.741 26.448 202.293 26.5273 201.864 26.686C201.434 26.8353 201.066 27.0453 200.758 27.316L200.31 26.574C200.683 26.2567 201.131 26.014 201.654 25.846C202.176 25.6687 202.727 25.58 203.306 25.58ZM202.956 32.286C203.516 32.286 203.996 32.16 204.398 31.908C204.799 31.6467 205.098 31.2733 205.294 30.788V29.584H202.984C201.724 29.584 201.094 30.0227 201.094 30.9C201.094 31.3293 201.257 31.67 201.584 31.922C201.91 32.1647 202.368 32.286 202.956 32.286ZM212.067 33.07C211.339 33.07 210.686 32.9113 210.107 32.594C209.538 32.2767 209.09 31.8333 208.763 31.264C208.436 30.6853 208.273 30.0367 208.273 29.318C208.273 28.5993 208.436 27.9553 208.763 27.386C209.09 26.8167 209.538 26.3733 210.107 26.056C210.686 25.7387 211.339 25.58 212.067 25.58C212.702 25.58 213.266 25.706 213.761 25.958C214.265 26.2007 214.662 26.56 214.951 27.036L214.209 27.54C213.966 27.176 213.658 26.9053 213.285 26.728C212.912 26.5413 212.506 26.448 212.067 26.448C211.535 26.448 211.054 26.5693 210.625 26.812C210.205 27.0453 209.874 27.3813 209.631 27.82C209.398 28.2587 209.281 28.758 209.281 29.318C209.281 29.8873 209.398 30.3913 209.631 30.83C209.874 31.2593 210.205 31.5953 210.625 31.838C211.054 32.0713 211.535 32.188 212.067 32.188C212.506 32.188 212.912 32.0993 213.285 31.922C213.658 31.7447 213.966 31.474 214.209 31.11L214.951 31.614C214.662 32.09 214.265 32.454 213.761 32.706C213.257 32.9487 212.692 33.07 212.067 33.07ZM219.524 29.304L217.788 30.9V33H216.794V22.612H217.788V29.654L222.184 25.636H223.416L220.266 28.646L223.71 33H222.492L219.524 29.304ZM231.314 29.626H225.154C225.21 30.3913 225.504 31.012 226.036 31.488C226.568 31.9547 227.24 32.188 228.052 32.188C228.509 32.188 228.929 32.1087 229.312 31.95C229.694 31.782 230.026 31.5393 230.306 31.222L230.866 31.866C230.539 32.258 230.128 32.5567 229.634 32.762C229.148 32.9673 228.612 33.07 228.024 33.07C227.268 33.07 226.596 32.9113 226.008 32.594C225.429 32.2673 224.976 31.8193 224.65 31.25C224.323 30.6807 224.16 30.0367 224.16 29.318C224.16 28.5993 224.314 27.9553 224.622 27.386C224.939 26.8167 225.368 26.3733 225.91 26.056C226.46 25.7387 227.076 25.58 227.758 25.58C228.439 25.58 229.05 25.7387 229.592 26.056C230.133 26.3733 230.558 26.8167 230.866 27.386C231.174 27.946 231.328 28.59 231.328 29.318L231.314 29.626ZM227.758 26.434C227.048 26.434 226.451 26.6627 225.966 27.12C225.49 27.568 225.219 28.156 225.154 28.884H230.376C230.31 28.156 230.035 27.568 229.55 27.12C229.074 26.6627 228.476 26.434 227.758 26.434ZM234.303 27.078C234.536 26.5833 234.882 26.21 235.339 25.958C235.806 25.706 236.38 25.58 237.061 25.58V26.546L236.823 26.532C236.048 26.532 235.442 26.77 235.003 27.246C234.564 27.722 234.345 28.3893 234.345 29.248V33H233.351V25.636H234.303V27.078Z" fill="#00A79D"/>
<rect x="22.6149" y="13.2158" width="1.59279" height="22.789" rx="0.5" transform="rotate(49.149 22.6149 13.2158)" fill="#097E7A" stroke="#097E7A"/>
<rect x="3.6715" y="30.0121" width="1.59279" height="1.52733" rx="0.5" transform="rotate(49.149 3.6715 30.0121)" fill="#097E7A" stroke="#097E7A"/>
<rect x="13.3428" y="39.8062" width="2.19857" height="3.74615" rx="1" transform="rotate(49.149 13.3428 39.8062)" fill="white"/>
<rect x="13.2916" y="40.5114" width="1.19857" height="2.74615" rx="0.5" transform="rotate(49.149 13.2916 40.5114)" stroke="white" stroke-opacity="0.5"/>
<rect x="20.168" y="34.1196" width="2.19857" height="3.74615" rx="1" transform="rotate(49.149 20.168 34.1196)" fill="white"/>
<rect x="20.1168" y="34.8248" width="1.19857" height="2.74615" rx="0.5" transform="rotate(49.149 20.1168 34.8248)" stroke="white" stroke-opacity="0.5"/>
<rect x="13.1279" y="27.2957" width="2.19857" height="3.46038" rx="1" transform="rotate(49.149 13.1279 27.2957)" fill="white"/>
<rect x="13.0768" y="28.0009" width="1.19857" height="2.46038" rx="0.5" transform="rotate(49.149 13.0768 28.0009)" stroke="white" stroke-opacity="0.5"/>
<rect x="20.6774" y="27.2721" width="1.59279" height="12.8697" rx="0.5" transform="rotate(49.149 20.6774 27.2721)" fill="#097E7A" stroke="#097E7A"/>
<rect x="8.87853" y="37.474" width="1.59279" height="10.0548" rx="0.5" transform="rotate(49.149 8.87853 37.474)" fill="#097E7A" stroke="#097E7A"/>
<rect x="35.4635" y="27.4607" width="1.59279" height="18.6938" rx="0.5" transform="rotate(49.149 35.4635 27.4607)" fill="#097E7A" stroke="#097E7A"/>
<rect x="26" y="6" width="11" height="19" fill="#097E7A"/>
<circle cx="31" cy="17" r="15" fill="#1E2129" stroke="#097E7A" stroke-width="4"/>
<ellipse cx="45.611" cy="22.2564" rx="8.37814" ry="7.88531" transform="rotate(-1.93243 45.611 22.2564)" fill="#262930"/>
<circle cx="45" cy="22" r="3" fill="white"/>
<ellipse cx="31.3254" cy="16.8667" rx="8.07371" ry="7.59878" transform="rotate(-1.93243 31.3254 16.8667)" fill="white"/>
</svg>
