<svg width="252" height="43" viewBox="0 0 252 43" fill="none" xmlns="http://www.w3.org/2000/svg">
  <path d="M58.0078 22.3945C56.0781 21.8398 54.6719 21.1602 53.7891 20.3555C52.9141 19.543 52.4766 18.543 52.4766 17.3555C52.4766 16.0117 53.0117 14.9023 54.082 14.0273C55.1602 13.1445 56.5586 12.7031 58.2773 12.7031C59.4492 12.7031 60.4922 12.9297 61.4062 13.3828C62.3281 13.8359 63.0391 14.4609 63.5391 15.2578C64.0469 16.0547 64.3008 16.9258 64.3008 17.8711H62.0391C62.0391 16.8398 61.7109 16.0312 61.0547 15.4453C60.3984 14.8516 59.4727 14.5547 58.2773 14.5547C57.168 14.5547 56.3008 14.8008 55.6758 15.293C55.0586 15.7773 54.75 16.4531 54.75 17.3203C54.75 18.0156 55.043 18.6055 55.6289 19.0898C56.2227 19.5664 57.2266 20.0039 58.6406 20.4023C60.0625 20.8008 61.1719 21.2422 61.9688 21.7266C62.7734 22.2031 63.3672 22.7617 63.75 23.4023C64.1406 24.043 64.3359 24.7969 64.3359 25.6641C64.3359 27.0469 63.7969 28.1562 62.7188 28.9922C61.6406 29.8203 60.1992 30.2344 58.3945 30.2344C57.2227 30.2344 56.1289 30.0117 55.1133 29.5664C54.0977 29.1133 53.3125 28.4961 52.7578 27.7148C52.2109 26.9336 51.9375 26.0469 51.9375 25.0547H54.1992C54.1992 26.0859 54.5781 26.9023 55.3359 27.5039C56.1016 28.0977 57.1211 28.3945 58.3945 28.3945C59.582 28.3945 60.4922 28.1523 61.125 27.668C61.7578 27.1836 62.0742 26.5234 62.0742 25.6875C62.0742 24.8516 61.7812 24.207 61.1953 23.7539C60.6094 23.293 59.5469 22.8398 58.0078 22.3945ZM74.7188 30C74.5938 29.75 74.4922 29.3047 74.4141 28.6641C73.4062 29.7109 72.2031 30.2344 70.8047 30.2344C69.5547 30.2344 68.5273 29.8828 67.7227 29.1797C66.9258 28.4688 66.5273 27.5703 66.5273 26.4844C66.5273 25.1641 67.0273 24.1406 68.0273 23.4141C69.0352 22.6797 70.4492 22.3125 72.2695 22.3125H74.3789V21.3164C74.3789 20.5586 74.1523 19.957 73.6992 19.5117C73.2461 19.0586 72.5781 18.832 71.6953 18.832C70.9219 18.832 70.2734 19.0273 69.75 19.418C69.2266 19.8086 68.9648 20.2812 68.9648 20.8359H66.7852C66.7852 20.2031 67.0078 19.5938 67.4531 19.0078C67.9062 18.4141 68.5156 17.9453 69.2812 17.6016C70.0547 17.2578 70.9023 17.0859 71.8242 17.0859C73.2852 17.0859 74.4297 17.4531 75.2578 18.1875C76.0859 18.9141 76.5156 19.918 76.5469 21.1992V27.0352C76.5469 28.1992 76.6953 29.125 76.9922 29.8125V30H74.7188ZM71.1211 28.3477C71.8008 28.3477 72.4453 28.1719 73.0547 27.8203C73.6641 27.4688 74.1055 27.0117 74.3789 26.4492V23.8477H72.6797C70.0234 23.8477 68.6953 24.625 68.6953 26.1797C68.6953 26.8594 68.9219 27.3906 69.375 27.7734C69.8281 28.1562 70.4102 28.3477 71.1211 28.3477ZM81.0117 30V18.9961H79.0078V17.3203H81.0117V16.0195C81.0117 14.6602 81.375 13.6094 82.1016 12.8672C82.8281 12.125 83.8555 11.7539 85.1836 11.7539C85.6836 11.7539 86.1797 11.8203 86.6719 11.9531L86.5547 13.7109C86.1875 13.6406 85.7969 13.6055 85.3828 13.6055C84.6797 13.6055 84.1367 13.8125 83.7539 14.2266C83.3711 14.6328 83.1797 15.2188 83.1797 15.9844V17.3203H85.8867V18.9961H83.1797V30H81.0117ZM93.2695 30.2344C91.5508 30.2344 90.1523 29.6719 89.0742 28.5469C87.9961 27.4141 87.457 25.9023 87.457 24.0117V23.6133C87.457 22.3555 87.6953 21.2344 88.1719 20.25C88.6562 19.2578 89.3281 18.4844 90.1875 17.9297C91.0547 17.3672 91.9922 17.0859 93 17.0859C94.6484 17.0859 95.9297 17.6289 96.8438 18.7148C97.7578 19.8008 98.2148 21.3555 98.2148 23.3789V24.2812H89.625C89.6562 25.5312 90.0195 26.543 90.7148 27.3164C91.418 28.082 92.3086 28.4648 93.3867 28.4648C94.1523 28.4648 94.8008 28.3086 95.332 27.9961C95.8633 27.6836 96.3281 27.2695 96.7266 26.7539L98.0508 27.7852C96.9883 29.418 95.3945 30.2344 93.2695 30.2344ZM93 18.8672C92.125 18.8672 91.3906 19.1875 90.7969 19.8281C90.2031 20.4609 89.8359 21.3516 89.6953 22.5H96.0469V22.3359C95.9844 21.2344 95.6875 20.3828 95.1562 19.7812C94.625 19.1719 93.9062 18.8672 93 18.8672ZM103.98 12.9375L109.559 26.8594L115.137 12.9375H118.055V30H115.805V23.3555L116.016 16.1836L110.414 30H108.691L103.102 16.2188L103.324 23.3555V30H101.074V12.9375H103.98ZM121.113 23.543C121.113 22.3008 121.355 21.1836 121.84 20.1914C122.332 19.1992 123.012 18.4336 123.879 17.8945C124.754 17.3555 125.75 17.0859 126.867 17.0859C128.594 17.0859 129.988 17.6836 131.051 18.8789C132.121 20.0742 132.656 21.6641 132.656 23.6484V23.8008C132.656 25.0352 132.418 26.1445 131.941 27.1289C131.473 28.1055 130.797 28.8672 129.914 29.4141C129.039 29.9609 128.031 30.2344 126.891 30.2344C125.172 30.2344 123.777 29.6367 122.707 28.4414C121.645 27.2461 121.113 25.6641 121.113 23.6953V23.543ZM123.293 23.8008C123.293 25.207 123.617 26.3359 124.266 27.1875C124.922 28.0391 125.797 28.4648 126.891 28.4648C127.992 28.4648 128.867 28.0352 129.516 27.1758C130.164 26.3086 130.488 25.0977 130.488 23.543C130.488 22.1523 130.156 21.0273 129.492 20.168C128.836 19.3008 127.961 18.8672 126.867 18.8672C125.797 18.8672 124.934 19.293 124.277 20.1445C123.621 20.9961 123.293 22.2148 123.293 23.8008ZM134.801 23.543C134.801 22.3008 135.043 21.1836 135.527 20.1914C136.02 19.1992 136.699 18.4336 137.566 17.8945C138.441 17.3555 139.438 17.0859 140.555 17.0859C142.281 17.0859 143.676 17.6836 144.738 18.8789C145.809 20.0742 146.344 21.6641 146.344 23.6484V23.8008C146.344 25.0352 146.105 26.1445 145.629 27.1289C145.16 28.1055 144.484 28.8672 143.602 29.4141C142.727 29.9609 141.719 30.2344 140.578 30.2344C138.859 30.2344 137.465 29.6367 136.395 28.4414C135.332 27.2461 134.801 25.6641 134.801 23.6953V23.543ZM136.98 23.8008C136.98 25.207 137.305 26.3359 137.953 27.1875C138.609 28.0391 139.484 28.4648 140.578 28.4648C141.68 28.4648 142.555 28.0352 143.203 27.1758C143.852 26.3086 144.176 25.0977 144.176 23.543C144.176 22.1523 143.844 21.0273 143.18 20.168C142.523 19.3008 141.648 18.8672 140.555 18.8672C139.484 18.8672 138.621 19.293 137.965 20.1445C137.309 20.9961 136.98 22.2148 136.98 23.8008ZM151.113 17.3203L151.184 18.9141C152.152 17.6953 153.418 17.0859 154.98 17.0859C157.66 17.0859 159.012 18.5977 159.035 21.6211V30H156.867V21.6094C156.859 20.6953 156.648 20.0195 156.234 19.582C155.828 19.1445 155.191 18.9258 154.324 18.9258C153.621 18.9258 153.004 19.1133 152.473 19.4883C151.941 19.8633 151.527 20.3555 151.23 20.9648V30H149.062V17.3203H151.113Z" fill="white"/>
  <path d="M174.77 14.7891H169.285V30H167.047V14.7891H161.574V12.9375H174.77V14.7891ZM182.199 19.2656C181.871 19.2109 181.516 19.1836 181.133 19.1836C179.711 19.1836 178.746 19.7891 178.238 21V30H176.07V17.3203H178.18L178.215 18.7852C178.926 17.6523 179.934 17.0859 181.238 17.0859C181.66 17.0859 181.98 17.1406 182.199 17.25V19.2656ZM191.562 30C191.438 29.75 191.336 29.3047 191.258 28.6641C190.25 29.7109 189.047 30.2344 187.648 30.2344C186.398 30.2344 185.371 29.8828 184.566 29.1797C183.77 28.4688 183.371 27.5703 183.371 26.4844C183.371 25.1641 183.871 24.1406 184.871 23.4141C185.879 22.6797 187.293 22.3125 189.113 22.3125H191.223V21.3164C191.223 20.5586 190.996 19.957 190.543 19.5117C190.09 19.0586 189.422 18.832 188.539 18.832C187.766 18.832 187.117 19.0273 186.594 19.418C186.07 19.8086 185.809 20.2812 185.809 20.8359H183.629C183.629 20.2031 183.852 19.5938 184.297 19.0078C184.75 18.4141 185.359 17.9453 186.125 17.6016C186.898 17.2578 187.746 17.0859 188.668 17.0859C190.129 17.0859 191.273 17.4531 192.102 18.1875C192.93 18.9141 193.359 19.918 193.391 21.1992V27.0352C193.391 28.1992 193.539 29.125 193.836 29.8125V30H191.562ZM187.965 28.3477C188.645 28.3477 189.289 28.1719 189.898 27.8203C190.508 27.4688 190.949 27.0117 191.223 26.4492V23.8477H189.523C186.867 23.8477 185.539 24.625 185.539 26.1797C185.539 26.8594 185.766 27.3906 186.219 27.7734C186.672 28.1562 187.254 28.3477 187.965 28.3477ZM201.875 28.4648C202.648 28.4648 203.324 28.2305 203.902 27.7617C204.48 27.293 204.801 26.707 204.863 26.0039H206.914C206.875 26.7305 206.625 27.4219 206.164 28.0781C205.703 28.7344 205.086 29.2578 204.312 29.6484C203.547 30.0391 202.734 30.2344 201.875 30.2344C200.148 30.2344 198.773 29.6602 197.75 28.5117C196.734 27.3555 196.227 25.7773 196.227 23.7773V23.4141C196.227 22.1797 196.453 21.082 196.906 20.1211C197.359 19.1602 198.008 18.4141 198.852 17.8828C199.703 17.3516 200.707 17.0859 201.863 17.0859C203.285 17.0859 204.465 17.5117 205.402 18.3633C206.348 19.2148 206.852 20.3203 206.914 21.6797H204.863C204.801 20.8594 204.488 20.1875 203.926 19.6641C203.371 19.1328 202.684 18.8672 201.863 18.8672C200.762 18.8672 199.906 19.2656 199.297 20.0625C198.695 20.8516 198.395 21.9961 198.395 23.4961V23.9062C198.395 25.3672 198.695 26.4922 199.297 27.2812C199.898 28.0703 200.758 28.4648 201.875 28.4648ZM212.891 24.1289L211.531 25.5469V30H209.363V12H211.531V22.8867L212.691 21.4922L216.641 17.3203H219.277L214.344 22.6172L219.852 30H217.309L212.891 24.1289ZM226.543 30.2344C224.824 30.2344 223.426 29.6719 222.348 28.5469C221.27 27.4141 220.73 25.9023 220.73 24.0117V23.6133C220.73 22.3555 220.969 21.2344 221.445 20.25C221.93 19.2578 222.602 18.4844 223.461 17.9297C224.328 17.3672 225.266 17.0859 226.273 17.0859C227.922 17.0859 229.203 17.6289 230.117 18.7148C231.031 19.8008 231.488 21.3555 231.488 23.3789V24.2812H222.898C222.93 25.5312 223.293 26.543 223.988 27.3164C224.691 28.082 225.582 28.4648 226.66 28.4648C227.426 28.4648 228.074 28.3086 228.605 27.9961C229.137 27.6836 229.602 27.2695 230 26.7539L231.324 27.7852C230.262 29.418 228.668 30.2344 226.543 30.2344ZM226.273 18.8672C225.398 18.8672 224.664 19.1875 224.07 19.8281C223.477 20.4609 223.109 21.3516 222.969 22.5H229.32V22.3359C229.258 21.2344 228.961 20.3828 228.43 19.7812C227.898 19.1719 227.18 18.8672 226.273 18.8672ZM240.137 19.2656C239.809 19.2109 239.453 19.1836 239.07 19.1836C237.648 19.1836 236.684 19.7891 236.176 21V30H234.008V17.3203H236.117L236.152 18.7852C236.863 17.6523 237.871 17.0859 239.176 17.0859C239.598 17.0859 239.918 17.1406 240.137 17.25V19.2656Z" fill="#068C86"/>
  <circle cx="23.4548" cy="21.1091" r="11.7273" fill="#097E7A"/>
  <circle cx="23.4548" cy="21.1091" r="11.2273" stroke="#097E7A"/>
  <circle cx="23.4546" cy="21.1091" r="19.0455" stroke="#097E7A"/>
  <circle cx="32.8368" cy="3.90909" r="3.90909" fill="#262930"/>
  <circle cx="3.90909" cy="21.1091" r="3.90909" fill="#262930"/>
  <circle cx="32.0546" cy="39.0909" r="3.90909" fill="#262930"/>
  <circle cx="32.8367" cy="3.90908" r="2.34545" fill="white"/>
  <circle cx="3.90893" cy="21.1091" r="2.34545" fill="white"/>
  <circle cx="32.0544" cy="38.3091" r="2.34545" fill="white"/>
  <circle cx="15.6361" cy="26.5818" r="3.12727" fill="#262930"/>
  <circle cx="28.5365" cy="11.3364" r="5.86364" fill="#262930"/>
  <circle cx="34.3997" cy="25.0182" r="3.12727" fill="#262930"/>
  <circle cx="23.4548" cy="21.1091" r="11.2273" stroke="#097E7A"/>
</svg>
