<svg width="238" height="46" viewBox="0 0 238 46" fill="none" xmlns="http://www.w3.org/2000/svg">
<path d="M66.8006 28.144C65.5526 28.144 64.3526 27.944 63.2006 27.544C62.0646 27.144 61.1846 26.616 60.5606 25.96L61.2566 24.592C61.8646 25.2 62.6726 25.696 63.6806 26.08C64.6886 26.448 65.7286 26.632 66.8006 26.632C68.3046 26.632 69.4326 26.36 70.1846 25.816C70.9366 25.256 71.3126 24.536 71.3126 23.656C71.3126 22.984 71.1046 22.448 70.6886 22.048C70.2886 21.648 69.7926 21.344 69.2006 21.136C68.6086 20.912 67.7846 20.672 66.7286 20.416C65.4646 20.096 64.4566 19.792 63.7046 19.504C62.9526 19.2 62.3046 18.744 61.7606 18.136C61.2326 17.528 60.9686 16.704 60.9686 15.664C60.9686 14.816 61.1926 14.048 61.6406 13.36C62.0886 12.656 62.7766 12.096 63.7046 11.68C64.6326 11.264 65.7846 11.056 67.1606 11.056C68.1206 11.056 69.0566 11.192 69.9686 11.464C70.8966 11.72 71.6966 12.08 72.3686 12.544L71.7686 13.96C71.0646 13.496 70.3126 13.152 69.5126 12.928C68.7126 12.688 67.9286 12.568 67.1606 12.568C65.6886 12.568 64.5766 12.856 63.8246 13.432C63.0886 13.992 62.7206 14.72 62.7206 15.616C62.7206 16.288 62.9206 16.832 63.3206 17.248C63.7366 17.648 64.2486 17.96 64.8566 18.184C65.4806 18.392 66.3126 18.624 67.3526 18.88C68.5846 19.184 69.5766 19.488 70.3286 19.792C71.0966 20.08 71.7446 20.528 72.2726 21.136C72.8006 21.728 73.0646 22.536 73.0646 23.56C73.0646 24.408 72.8326 25.184 72.3686 25.888C71.9206 26.576 71.2246 27.128 70.2806 27.544C69.3366 27.944 68.1766 28.144 66.8006 28.144ZM80.9902 15.28C82.6382 15.28 83.9022 15.696 84.7822 16.528C85.6622 17.344 86.1022 18.56 86.1022 20.176V28H84.4702V26.032C84.0862 26.688 83.5182 27.2 82.7662 27.568C82.0302 27.936 81.1502 28.12 80.1262 28.12C78.7182 28.12 77.5982 27.784 76.7662 27.112C75.9342 26.44 75.5182 25.552 75.5182 24.448C75.5182 23.376 75.9022 22.512 76.6702 21.856C77.4542 21.2 78.6942 20.872 80.3902 20.872H84.3982V20.104C84.3982 19.016 84.0942 18.192 83.4862 17.632C82.8782 17.056 81.9902 16.768 80.8222 16.768C80.0222 16.768 79.2542 16.904 78.5182 17.176C77.7822 17.432 77.1502 17.792 76.6222 18.256L75.8542 16.984C76.4942 16.44 77.2622 16.024 78.1582 15.736C79.0542 15.432 79.9982 15.28 80.9902 15.28ZM80.3902 26.776C81.3502 26.776 82.1742 26.56 82.8622 26.128C83.5502 25.68 84.0622 25.04 84.3982 24.208V22.144H80.4382C78.2782 22.144 77.1982 22.896 77.1982 24.4C77.1982 25.136 77.4782 25.72 78.0382 26.152C78.5982 26.568 79.3822 26.776 80.3902 26.776ZM94.9065 11.512C94.1705 11.512 93.6105 11.712 93.2265 12.112C92.8585 12.512 92.6745 13.104 92.6745 13.888V15.376H96.5625V16.816H92.7225V28H91.0185V16.816H88.7625V15.376H91.0185V13.816C91.0185 12.664 91.3465 11.752 92.0025 11.08C92.6745 10.408 93.6185 10.072 94.8345 10.072C95.3145 10.072 95.7785 10.144 96.2265 10.288C96.6745 10.416 97.0505 10.608 97.3545 10.864L96.7785 12.136C96.2825 11.72 95.6585 11.512 94.9065 11.512ZM109.644 22.216H99.0844C99.1804 23.528 99.6844 24.592 100.596 25.408C101.508 26.208 102.66 26.608 104.052 26.608C104.836 26.608 105.556 26.472 106.212 26.2C106.868 25.912 107.436 25.496 107.916 24.952L108.876 26.056C108.316 26.728 107.612 27.24 106.764 27.592C105.932 27.944 105.012 28.12 104.004 28.12C102.708 28.12 101.556 27.848 100.548 27.304C99.5564 26.744 98.7804 25.976 98.2204 25C97.6604 24.024 97.3804 22.92 97.3804 21.688C97.3804 20.456 97.6444 19.352 98.1724 18.376C98.7164 17.4 99.4524 16.64 100.38 16.096C101.324 15.552 102.38 15.28 103.548 15.28C104.716 15.28 105.764 15.552 106.692 16.096C107.62 16.64 108.348 17.4 108.876 18.376C109.404 19.336 109.668 20.44 109.668 21.688L109.644 22.216ZM103.548 16.744C102.332 16.744 101.308 17.136 100.476 17.92C99.6604 18.688 99.1964 19.696 99.0844 20.944H108.036C107.924 19.696 107.452 18.688 106.62 17.92C105.804 17.136 104.78 16.744 103.548 16.744ZM128.881 15.28C130.465 15.28 131.705 15.736 132.601 16.648C133.513 17.56 133.969 18.904 133.969 20.68V28H132.265V20.848C132.265 19.536 131.945 18.536 131.305 17.848C130.681 17.16 129.793 16.816 128.641 16.816C127.329 16.816 126.297 17.224 125.545 18.04C124.793 18.84 124.417 19.952 124.417 21.376V28H122.713V20.848C122.713 19.536 122.393 18.536 121.753 17.848C121.129 17.16 120.233 16.816 119.065 16.816C117.769 16.816 116.737 17.224 115.969 18.04C115.217 18.84 114.841 19.952 114.841 21.376V28H113.137V15.376H114.769V17.68C115.217 16.912 115.841 16.32 116.641 15.904C117.441 15.488 118.361 15.28 119.401 15.28C120.457 15.28 121.369 15.504 122.137 15.952C122.921 16.4 123.505 17.064 123.889 17.944C124.353 17.112 125.017 16.464 125.881 16C126.761 15.52 127.761 15.28 128.881 15.28ZM143.797 28.12C142.581 28.12 141.485 27.848 140.509 27.304C139.533 26.744 138.765 25.976 138.205 25C137.645 24.024 137.365 22.92 137.365 21.688C137.365 20.456 137.645 19.352 138.205 18.376C138.765 17.4 139.533 16.64 140.509 16.096C141.485 15.552 142.581 15.28 143.797 15.28C145.013 15.28 146.109 15.552 147.085 16.096C148.061 16.64 148.821 17.4 149.365 18.376C149.925 19.352 150.205 20.456 150.205 21.688C150.205 22.92 149.925 24.024 149.365 25C148.821 25.976 148.061 26.744 147.085 27.304C146.109 27.848 145.013 28.12 143.797 28.12ZM143.797 26.608C144.693 26.608 145.493 26.408 146.197 26.008C146.917 25.592 147.477 25.008 147.877 24.256C148.277 23.504 148.477 22.648 148.477 21.688C148.477 20.728 148.277 19.872 147.877 19.12C147.477 18.368 146.917 17.792 146.197 17.392C145.493 16.976 144.693 16.768 143.797 16.768C142.901 16.768 142.093 16.976 141.373 17.392C140.669 17.792 140.109 18.368 139.693 19.12C139.293 19.872 139.093 20.728 139.093 21.688C139.093 22.648 139.293 23.504 139.693 24.256C140.109 25.008 140.669 25.592 141.373 26.008C142.093 26.408 142.901 26.608 143.797 26.608ZM158.844 28.12C157.628 28.12 156.532 27.848 155.556 27.304C154.58 26.744 153.812 25.976 153.252 25C152.692 24.024 152.412 22.92 152.412 21.688C152.412 20.456 152.692 19.352 153.252 18.376C153.812 17.4 154.58 16.64 155.556 16.096C156.532 15.552 157.628 15.28 158.844 15.28C160.06 15.28 161.156 15.552 162.132 16.096C163.108 16.64 163.868 17.4 164.412 18.376C164.972 19.352 165.252 20.456 165.252 21.688C165.252 22.92 164.972 24.024 164.412 25C163.868 25.976 163.108 26.744 162.132 27.304C161.156 27.848 160.06 28.12 158.844 28.12ZM158.844 26.608C159.74 26.608 160.54 26.408 161.244 26.008C161.964 25.592 162.524 25.008 162.924 24.256C163.324 23.504 163.524 22.648 163.524 21.688C163.524 20.728 163.324 19.872 162.924 19.12C162.524 18.368 161.964 17.792 161.244 17.392C160.54 16.976 159.74 16.768 158.844 16.768C157.948 16.768 157.14 16.976 156.42 17.392C155.716 17.792 155.156 18.368 154.74 19.12C154.34 19.872 154.14 20.728 154.14 21.688C154.14 22.648 154.34 23.504 154.74 24.256C155.156 25.008 155.716 25.592 156.42 26.008C157.14 26.408 157.948 26.608 158.844 26.608ZM175.162 15.28C176.746 15.28 178.002 15.744 178.93 16.672C179.874 17.584 180.346 18.92 180.346 20.68V28H178.642V20.848C178.642 19.536 178.314 18.536 177.658 17.848C177.002 17.16 176.066 16.816 174.85 16.816C173.49 16.816 172.41 17.224 171.61 18.04C170.826 18.84 170.434 19.952 170.434 21.376V28H168.73V15.376H170.362V17.704C170.826 16.936 171.466 16.344 172.282 15.928C173.114 15.496 174.074 15.28 175.162 15.28Z" fill="white"/>
<path d="M188.933 19.096H185.489V18.2H193.413V19.096H189.969V28H188.933V19.096ZM195.618 22.078C195.852 21.5833 196.197 21.21 196.654 20.958C197.121 20.706 197.695 20.58 198.376 20.58V21.546L198.138 21.532C197.364 21.532 196.757 21.77 196.318 22.246C195.88 22.722 195.66 23.3893 195.66 24.248V28H194.666V20.636H195.618V22.078ZM202.738 20.58C203.7 20.58 204.437 20.8227 204.95 21.308C205.464 21.784 205.72 22.4933 205.72 23.436V28H204.768V26.852C204.544 27.2347 204.213 27.5333 203.774 27.748C203.345 27.9627 202.832 28.07 202.234 28.07C201.413 28.07 200.76 27.874 200.274 27.482C199.789 27.09 199.546 26.572 199.546 25.928C199.546 25.3027 199.77 24.7987 200.218 24.416C200.676 24.0333 201.399 23.842 202.388 23.842H204.726V23.394C204.726 22.7593 204.549 22.2787 204.194 21.952C203.84 21.616 203.322 21.448 202.64 21.448C202.174 21.448 201.726 21.5273 201.296 21.686C200.867 21.8353 200.498 22.0453 200.19 22.316L199.742 21.574C200.116 21.2567 200.564 21.014 201.086 20.846C201.609 20.6687 202.16 20.58 202.738 20.58ZM202.388 27.286C202.948 27.286 203.429 27.16 203.83 26.908C204.232 26.6467 204.53 26.2733 204.726 25.788V24.584H202.416C201.156 24.584 200.526 25.0227 200.526 25.9C200.526 26.3293 200.69 26.67 201.016 26.922C201.343 27.1647 201.8 27.286 202.388 27.286ZM211.5 28.07C210.772 28.07 210.118 27.9113 209.54 27.594C208.97 27.2767 208.522 26.8333 208.196 26.264C207.869 25.6853 207.706 25.0367 207.706 24.318C207.706 23.5993 207.869 22.9553 208.196 22.386C208.522 21.8167 208.97 21.3733 209.54 21.056C210.118 20.7387 210.772 20.58 211.5 20.58C212.134 20.58 212.699 20.706 213.194 20.958C213.698 21.2007 214.094 21.56 214.384 22.036L213.642 22.54C213.399 22.176 213.091 21.9053 212.718 21.728C212.344 21.5413 211.938 21.448 211.5 21.448C210.968 21.448 210.487 21.5693 210.058 21.812C209.638 22.0453 209.306 22.3813 209.064 22.82C208.83 23.2587 208.714 23.758 208.714 24.318C208.714 24.8873 208.83 25.3913 209.064 25.83C209.306 26.2593 209.638 26.5953 210.058 26.838C210.487 27.0713 210.968 27.188 211.5 27.188C211.938 27.188 212.344 27.0993 212.718 26.922C213.091 26.7447 213.399 26.474 213.642 26.11L214.384 26.614C214.094 27.09 213.698 27.454 213.194 27.706C212.69 27.9487 212.125 28.07 211.5 28.07ZM218.957 24.304L217.221 25.9V28H216.227V17.612H217.221V24.654L221.617 20.636H222.849L219.699 23.646L223.143 28H221.925L218.957 24.304ZM230.746 24.626H224.586C224.642 25.3913 224.936 26.012 225.468 26.488C226 26.9547 226.672 27.188 227.484 27.188C227.942 27.188 228.362 27.1087 228.744 26.95C229.127 26.782 229.458 26.5393 229.738 26.222L230.298 26.866C229.972 27.258 229.561 27.5567 229.066 27.762C228.581 27.9673 228.044 28.07 227.456 28.07C226.7 28.07 226.028 27.9113 225.44 27.594C224.862 27.2673 224.409 26.8193 224.082 26.25C223.756 25.6807 223.592 25.0367 223.592 24.318C223.592 23.5993 223.746 22.9553 224.054 22.386C224.372 21.8167 224.801 21.3733 225.342 21.056C225.893 20.7387 226.509 20.58 227.19 20.58C227.872 20.58 228.483 20.7387 229.024 21.056C229.566 21.3733 229.99 21.8167 230.298 22.386C230.606 22.946 230.76 23.59 230.76 24.318L230.746 24.626ZM227.19 21.434C226.481 21.434 225.884 21.6627 225.398 22.12C224.922 22.568 224.652 23.156 224.586 23.884H229.808C229.743 23.156 229.468 22.568 228.982 22.12C228.506 21.6627 227.909 21.434 227.19 21.434ZM233.735 22.078C233.969 21.5833 234.314 21.21 234.771 20.958C235.238 20.706 235.812 20.58 236.493 20.58V21.546L236.255 21.532C235.481 21.532 234.874 21.77 234.435 22.246C233.997 22.722 233.777 23.3893 233.777 24.248V28H232.783V20.636H233.735V22.078Z" fill="#00A79D"/>
<rect x="22.0475" y="13.2158" width="1.59279" height="22.789" rx="0.5" transform="rotate(49.149 22.0475 13.2158)" fill="#097E7A" stroke="#097E7A"/>
<rect x="3.10411" y="30.0121" width="1.59279" height="1.52733" rx="0.5" transform="rotate(49.149 3.10411 30.0121)" fill="#097E7A" stroke="#097E7A"/>
<rect x="12.7754" y="39.8062" width="2.19857" height="3.74615" rx="1" transform="rotate(49.149 12.7754 39.8062)" fill="white"/>
<rect x="12.7242" y="40.5114" width="1.19857" height="2.74615" rx="0.5" transform="rotate(49.149 12.7242 40.5114)" stroke="white" stroke-opacity="0.5"/>
<rect x="19.6006" y="34.1196" width="2.19857" height="3.74615" rx="1" transform="rotate(49.149 19.6006 34.1196)" fill="white"/>
<rect x="19.5494" y="34.8249" width="1.19857" height="2.74615" rx="0.5" transform="rotate(49.149 19.5494 34.8249)" stroke="white" stroke-opacity="0.5"/>
<rect x="12.5605" y="27.2957" width="2.19857" height="3.46038" rx="1" transform="rotate(49.149 12.5605 27.2957)" fill="white"/>
<rect x="12.5094" y="28.0009" width="1.19857" height="2.46038" rx="0.5" transform="rotate(49.149 12.5094 28.0009)" stroke="white" stroke-opacity="0.5"/>
<rect x="20.11" y="27.2721" width="1.59279" height="12.8697" rx="0.5" transform="rotate(49.149 20.11 27.2721)" fill="#097E7A" stroke="#097E7A"/>
<rect x="8.31115" y="37.4741" width="1.59279" height="10.0548" rx="0.5" transform="rotate(49.149 8.31115 37.4741)" fill="#097E7A" stroke="#097E7A"/>
<rect x="34.8961" y="27.4606" width="1.59279" height="18.6938" rx="0.5" transform="rotate(49.149 34.8961 27.4606)" fill="#097E7A" stroke="#097E7A"/>
<rect x="25.4326" y="6" width="11" height="19" fill="#097E7A"/>
<circle cx="30.4326" cy="17" r="15" fill="#1E2129" stroke="#097E7A" stroke-width="4"/>
<ellipse cx="45.0436" cy="22.2565" rx="8.37814" ry="7.88531" transform="rotate(-1.93243 45.0436 22.2565)" fill="#262930"/>
<circle cx="44.4326" cy="22" r="3" fill="white"/>
<ellipse cx="30.758" cy="16.8666" rx="8.07371" ry="7.59878" transform="rotate(-1.93243 30.758 16.8666)" fill="white"/>
</svg>
