<?xml version="1.0" standalone="no"?>
<!DOCTYPE svg PUBLIC "-//W3C//DTD SVG 20010904//EN"
 "http://www.w3.org/TR/2001/REC-SVG-20010904/DTD/svg10.dtd">
<svg version="1.0" xmlns="http://www.w3.org/2000/svg"
 width="700.000000pt" height="700.000000pt" viewBox="0 0 700.000000 700.000000"
 preserveAspectRatio="xMidYMid meet">
<metadata>
Created by potrace 1.14, written by Peter Selinger 2001-2017
</metadata>
<g transform="translate(0.000000,700.000000) scale(0.100000,-0.100000)"
fill="#000000" stroke="none">
<path d="M4318 6995 c-2 -1 -34 -5 -73 -8 -81 -7 -225 -32 -305 -52 -30 -8
-66 -16 -80 -19 -37 -6 -263 -83 -296 -101 -16 -8 -33 -15 -37 -15 -11 0 -188
-88 -253 -125 -471 -272 -863 -714 -1077 -1215 -86 -202 -161 -467 -183 -645
-4 -27 -8 -52 -9 -55 -8 -14 -19 -211 -19 -345 -1 -167 14 -374 29 -421 2 -7
-20 -31 -48 -55 -28 -24 -58 -51 -67 -59 -13 -13 -129 -116 -235 -209 -39 -34
-227 -203 -241 -216 -6 -5 -41 -37 -79 -70 -37 -33 -73 -65 -79 -71 -6 -6 -99
-88 -206 -183 -107 -95 -204 -183 -216 -195 -12 -11 -40 -37 -64 -56 -97 -80
-120 -185 -62 -288 24 -41 100 -82 154 -82 64 0 105 23 203 111 115 104 163
146 240 214 37 33 80 71 95 85 28 26 157 142 192 172 25 21 164 146 194 173
12 11 51 46 85 77 35 31 102 90 149 132 47 41 87 76 90 76 3 0 20 -42 39 -93
30 -83 112 -258 170 -362 21 -36 138 -213 195 -291 12 -17 44 -57 71 -89 l49
-57 -39 -35 c-22 -20 -71 -64 -110 -98 -38 -35 -79 -72 -91 -82 -12 -10 -55
-49 -96 -86 -42 -37 -87 -77 -99 -88 -13 -11 -37 -33 -54 -47 -16 -15 -111
-99 -210 -187 -98 -88 -187 -167 -195 -175 -9 -8 -49 -44 -90 -80 -40 -36 -84
-76 -97 -90 -103 -107 -53 -290 89 -328 41 -11 109 0 145 24 21 13 339 293
486 428 13 12 57 50 97 86 41 36 81 72 90 80 9 8 74 67 145 130 72 63 135 119
141 125 55 51 164 147 167 148 3 1 45 -28 94 -65 48 -36 129 -92 178 -123 195
-123 497 -251 704 -299 34 -8 66 -18 69 -21 4 -4 -9 -21 -29 -38 -52 -47 -179
-159 -203 -180 -12 -10 -37 -33 -56 -50 -29 -27 -180 -161 -339 -302 -19 -16
-41 -37 -50 -45 -9 -9 -56 -52 -106 -95 -106 -94 -111 -99 -131 -145 -23 -51
-13 -140 20 -189 57 -82 166 -107 250 -57 22 14 64 47 92 73 28 27 84 78 125
113 41 36 88 78 105 95 18 16 45 41 60 54 50 43 299 264 309 275 6 6 28 26 50
45 22 19 74 65 115 102 41 37 85 76 98 87 12 11 53 47 90 80 125 112 137 122
152 123 8 0 47 2 85 4 67 3 152 11 225 21 68 9 292 55 318 65 15 6 34 12 42
14 23 5 142 45 175 60 17 7 41 16 55 20 14 4 93 42 176 84 184 94 356 208 495
328 86 74 265 259 327 338 35 44 69 87 75 95 23 28 124 185 164 255 106 182
229 493 268 674 2 9 10 48 19 86 8 39 17 88 20 110 3 22 11 74 17 115 14 94
19 438 9 545 -10 96 -21 194 -25 215 -2 8 -11 51 -20 95 -9 44 -19 89 -21 101
-10 54 -70 240 -111 344 -227 574 -642 1039 -1190 1331 -185 99 -489 205 -663
233 -19 3 -46 8 -60 11 -14 3 -43 7 -65 10 -22 3 -56 8 -75 11 -38 6 -436 14
-442 9z"/>
<path d="M1795 2769 c-50 -14 -228 -171 -247 -219 -42 -105 25 -224 131 -235
58 -5 88 10 193 100 105 91 133 140 125 211 -11 100 -108 168 -202 143z"/>
<path d="M397 2449 c-39 -11 -94 -54 -112 -88 -64 -125 17 -282 152 -294 160
-14 256 170 161 309 -41 60 -131 93 -201 73z"/>
<path d="M2827 1726 c-39 -14 -45 -19 -131 -97 -28 -26 -66 -59 -84 -74 -110
-92 -86 -255 44 -300 39 -13 85 -11 117 7 20 10 127 102 198 169 52 49 73 101
65 157 -3 20 -5 40 -6 44 0 3 -12 20 -26 38 -48 56 -116 78 -177 56z"/>
<path d="M1150 1307 c-27 -12 -90 -60 -144 -110 -19 -18 -49 -45 -67 -61 -19
-17 -77 -68 -129 -115 -52 -46 -131 -116 -175 -155 -43 -39 -86 -78 -95 -86
-9 -8 -52 -46 -96 -85 -43 -38 -81 -72 -84 -75 -3 -3 -45 -41 -95 -84 -160
-140 -185 -176 -185 -258 1 -117 97 -204 213 -193 62 6 46 -7 603 492 40 35
83 73 95 84 13 11 40 35 59 52 20 18 76 68 125 112 204 181 220 201 228 280 8
76 -46 170 -113 197 -35 15 -110 17 -140 5z"/>
<path d="M1802 853 c-48 -27 -231 -193 -249 -226 -60 -116 21 -247 154 -247
38 0 82 27 168 103 103 91 110 99 135 139 48 78 8 198 -79 234 -45 19 -90 18
-129 -3z"/>
</g>
</svg>
