<?xml version="1.0" standalone="no"?>
<!DOCTYPE svg PUBLIC "-//W3C//DTD SVG 20010904//EN"
 "http://www.w3.org/TR/2001/REC-SVG-20010904/DTD/svg10.dtd">
<svg version="1.0" xmlns="http://www.w3.org/2000/svg"
 width="700.000000pt" height="700.000000pt" viewBox="0 0 700.000000 700.000000"
 preserveAspectRatio="xMidYMid meet">
<metadata>
Created by potrace 1.14, written by Peter Selinger 2001-2017
</metadata>
<g transform="translate(0.000000,700.000000) scale(0.100000,-0.100000)"
fill="#000000" stroke="none">
<path d="M5210 6985 c-116 -26 -213 -79 -303 -164 -53 -50 -123 -148 -140
-195 -8 -21 -7 -21 -147 17 -103 28 -273 62 -360 72 -30 3 -66 8 -80 10 -66
10 -218 18 -340 18 -129 1 -367 -10 -379 -17 -3 -2 -35 -7 -71 -10 -148 -14
-504 -99 -630 -151 -19 -7 -78 -30 -130 -51 -259 -100 -533 -259 -789 -458
-96 -74 -355 -321 -426 -406 -346 -411 -571 -849 -689 -1339 -14 -57 -27 -105
-28 -107 -2 -1 -35 -4 -73 -5 -249 -7 -482 -166 -578 -394 -70 -167 -55 -403
36 -555 81 -137 213 -244 355 -289 80 -26 101 -29 189 -30 67 -1 73 -3 77 -23
143 -686 525 -1324 1061 -1773 44 -37 91 -76 104 -87 41 -35 242 -171 326
-221 76 -45 298 -158 376 -191 198 -84 490 -172 669 -202 14 -2 39 -6 55 -9
17 -3 50 -7 75 -11 25 -3 50 -7 57 -9 30 -10 224 -19 388 -19 246 0 375 11
580 49 113 21 118 22 160 34 42 11 55 8 55 -17 0 -9 19 -54 42 -100 74 -150
213 -269 378 -323 64 -20 93 -24 195 -23 104 1 130 4 195 28 212 76 362 239
415 451 18 72 23 190 11 259 -10 63 -50 167 -84 221 l-31 50 22 20 c12 11 35
30 51 43 111 85 320 288 426 411 118 137 262 339 349 491 189 330 332 742 387
1119 4 25 8 55 10 65 18 100 25 524 12 676 -10 108 -18 182 -23 205 -6 29 -24
126 -29 155 -4 21 -15 72 -31 140 -29 122 -103 344 -145 435 -5 11 -25 58 -45
105 -92 214 -308 560 -451 720 -12 14 -44 50 -71 80 -63 71 -205 213 -271 271
l-53 46 35 69 c62 123 76 179 76 300 0 289 -193 537 -480 616 -56 15 -229 17
-290 3z m-1220 -409 c132 -8 186 -12 230 -20 19 -3 51 -8 70 -11 19 -2 49 -7
65 -11 17 -3 39 -7 50 -9 11 -1 43 -8 70 -15 28 -6 57 -13 65 -15 8 -1 51 -13
95 -25 l80 -22 -2 -87 c-1 -79 10 -143 43 -241 4 -13 -11 -15 -103 -14 -377 4
-719 -214 -878 -562 l-33 -71 -97 -7 c-263 -18 -583 -125 -829 -275 -417 -256
-730 -682 -850 -1156 -46 -184 -59 -310 -53 -520 3 -104 8 -208 12 -230 18
-106 50 -232 89 -349 35 -102 42 -135 35 -154 -12 -30 -15 -154 -5 -202 44
-214 226 -385 439 -413 24 -3 51 -16 70 -34 17 -15 37 -34 45 -40 79 -72 246
-179 387 -249 422 -206 922 -247 1380 -113 84 25 252 93 315 127 132 72 163
91 255 156 111 78 335 295 404 391 l43 61 65 -22 c71 -24 187 -30 265 -13 81
18 188 78 250 142 199 204 191 535 -18 726 -47 43 -100 80 -124 86 -3 1 -22 9
-42 18 -21 10 -41 17 -45 17 -4 0 -8 73 -8 163 -1 182 -13 277 -56 452 -44
178 -133 388 -232 546 -9 15 -9 24 2 42 115 183 161 349 156 562 -2 120 -16
196 -56 305 -22 61 -80 171 -110 209 -25 32 -30 28 71 48 50 9 156 58 211 98
l47 34 64 -57 c475 -424 799 -975 942 -1600 72 -312 89 -661 52 -1017 -3 -26
-6 -50 -21 -145 -46 -307 -185 -695 -353 -990 -30 -52 -141 -228 -159 -250 -6
-8 -35 -46 -64 -85 -114 -152 -295 -343 -440 -466 -167 -141 -157 -137 -211
-102 -110 71 -185 94 -323 100 -192 9 -334 -46 -471 -182 -114 -114 -180 -251
-189 -393 -3 -53 0 -51 -136 -80 -705 -152 -1461 -40 -2094 311 -80 44 -312
192 -325 207 -3 3 -23 19 -45 35 -121 89 -288 245 -414 385 -317 353 -548 780
-669 1235 -51 190 -52 176 20 212 302 150 433 523 292 830 -62 137 -191 265
-319 319 -19 8 -35 18 -35 22 0 23 56 230 91 338 175 539 510 1027 957 1396
198 163 553 377 737 443 28 10 55 21 60 25 17 11 214 78 312 105 94 26 210 52
273 61 19 3 42 7 50 9 8 2 41 7 73 10 32 4 68 8 80 11 12 2 83 7 157 10 74 4
136 7 137 8 2 2 63 -1 203 -8z"/>
</g>
</svg>
